<?xml version="1.0" encoding="UTF-8"?>
<svg width="40px" height="40px" viewBox="0 0 40 40" version="1.1" xmlns="http://www.w3.org/2000/svg" xmlns:xlink="http://www.w3.org/1999/xlink">
    <!-- Generator: sketchtool 49.1 (51147) - http://www.bohemiancoding.com/sketch -->
    <title>818D0DB7-6835-4330-9C45-40EDD8BCBAF7</title>
    <desc>Created with sketchtool.</desc>
    <defs></defs>
    <g id="Symbols" stroke="none" stroke-width="1" fill="none" fill-rule="evenodd">
        <g id="Article-New">
            <g id="Article-test" transform="translate(0.000000, 3.000000)">
                <path d="M8.44444444,16.4444444 L0,16.4444444 L0,28.5185185 C0,31.7037037 2.46296296,34.3703704 5.55925926,34.3703704 L30.6111111,34.3703704 C34.5518519,34.3703704 37.7185185,31.037037 37.7185185,26.8888889 L37.7185185,0 L8.44444444,0 L8.44444444,16.4444444 Z" id="Shape-Copy" fill="#FFFFFF" fill-rule="nonzero"></path>
                <path d="M2.6037037,28.5925926 L2.6037037,19.1851852 L8.44444444,19.1851852 L8.44444444,28.5185185 C8.44444444,30.2222222 7.10740741,31.5555556 5.55925926,31.5555556 C4.01111111,31.5555556 2.6037037,30.2962963 2.6037037,28.5925926 Z" id="Path" fill="#27509B" fill-rule="evenodd"></path>
                <path d="M16.8185185,10.1481481 L23.0111111,10.1481481 C23.7148148,10.1481481 24.3481481,9.55555556 24.3481481,8.74074074 C24.3481481,7.92592593 23.7148148,7.40740741 23.0111111,7.40740741 L16.8185185,7.40740741 C16.1148148,7.40740741 15.4814815,8 15.4814815,8.81481481 C15.4814815,9.62962963 16.0444444,10.1481481 16.8185185,10.1481481 Z" id="Shape-Copy-2" fill="#27509B" fill-rule="nonzero"></path>
                <path d="M16.8185185,15.6049383 L28.9222222,15.6049383 C29.6259259,15.6049383 30.2592593,15.0123457 30.2592593,14.1975309 C30.2592593,13.382716 29.6962963,12.7901235 28.9222222,12.7901235 L16.8185185,12.7901235 C16.1148148,12.7901235 15.4814815,13.382716 15.4814815,14.1975309 C15.4814815,15.0123457 16.0444444,15.6049383 16.8185185,15.6049383 Z" id="Shape-Copy-3" fill="#27509B" fill-rule="nonzero"></path>
                <path d="M16.8185185,21.0617284 L28.9222222,21.0617284 C29.6259259,21.0617284 30.2592593,20.4691358 30.2592593,19.654321 C30.2592593,18.8395062 29.6962963,18.2469136 28.9222222,18.2469136 L16.8185185,18.2469136 C16.1148148,18.2469136 15.4814815,18.8395062 15.4814815,19.654321 C15.4814815,20.4691358 16.0444444,21.0617284 16.8185185,21.0617284 Z" id="Shape-Copy-4" fill="#27509B" fill-rule="nonzero"></path>
                <path d="M16.8185185,26.5185185 L28.9222222,26.5185185 C29.6259259,26.5185185 30.2592593,25.9259259 30.2592593,25.1111111 C30.2592593,24.2962963 29.6962963,23.7037037 28.9222222,23.7037037 L16.8185185,23.7037037 C16.1148148,23.7037037 15.4814815,24.2962963 15.4814815,25.1111111 C15.4814815,25.9259259 16.0444444,26.5185185 16.8185185,26.5185185 Z" id="Shape-Copy-5" fill="#27509B" fill-rule="nonzero"></path>
            </g>
        </g>
    </g>
</svg>